<?xml version="1.0" encoding="UTF-8" standalone="no"?><!DOCTYPE svg PUBLIC "-//W3C//DTD SVG 1.1//EN" "http://www.w3.org/Graphics/SVG/1.1/DTD/svg11.dtd"><svg width="100%" height="100%" viewBox="0 0 1674 2210" version="1.1" xmlns="http://www.w3.org/2000/svg" xmlns:xlink="http://www.w3.org/1999/xlink" xml:space="preserve" xmlns:serif="http://www.serif.com/" style="fill-rule:evenodd;clip-rule:evenodd;stroke-linejoin:round;stroke-miterlimit:2;"><rect id="isotipo-white" x="0.082" y="0.267" width="1673.66" height="2208.818" style="fill-opacity:0;"/><g><path d="M828.489,321.833c-6.146,2.259 -283.659,105.879 -464.085,463.15c-82.278,162.925 -85.21,383.574 80.842,577.426l-157.706,150.39c0,0 6.505,658.263 0.212,660.855l-71.055,0l-2.527,-698.926l120.199,-119.826c-140.221,-188.923 -126.8,-451.307 -58.171,-602.085c93.678,-205.812 264.396,-391.114 552.187,-522.433c0.035,-0.016 0.069,-0.032 0.104,-0.047c0.035,0.016 0.069,0.032 0.104,0.047c287.791,131.319 458.509,316.621 552.187,522.433c68.629,150.779 82.05,413.162 -58.171,602.085l120.199,119.826l-2.527,698.926l-71.055,0c-6.293,-2.591 0.212,-660.855 0.212,-660.855l-157.706,-150.39c166.051,-193.852 163.12,-414.501 80.842,-577.426c-180.425,-357.271 -457.939,-460.891 -464.085,-463.15Z" style="fill:#fff;"/><path d="M828.593,118.965c-82.173,38.266 -427.605,245.763 -578.386,470.281c-111.703,166.329 -142.138,299.551 -152.389,442.331c0,0 9.142,1138.312 0,1142.076l-71.055,0l0,-1158.147c0,-14.178 0.882,-28.252 1.115,-42.266c3.063,-184.338 96.164,-350.388 163.695,-445.447c133.42,-187.805 349.103,-369.011 637.02,-500.336c287.917,131.325 503.6,312.531 637.02,500.336c67.531,95.059 160.632,261.109 163.695,445.447c0.233,14.014 1.115,28.088 1.115,42.266l0,1158.147l-71.055,0c-9.142,-3.764 0,-1142.076 0,-1142.076c-10.251,-142.78 -40.686,-276.002 -152.389,-442.331c-150.782,-224.518 -496.214,-432.016 -578.386,-470.281Z" style="fill:#fff;"/></g></svg>