<?xml version="1.0" encoding="UTF-8" standalone="no"?><!DOCTYPE svg PUBLIC "-//W3C//DTD SVG 1.1//EN" "http://www.w3.org/Graphics/SVG/1.1/DTD/svg11.dtd"><svg width="100%" height="100%" viewBox="0 0 2481 2231" version="1.1" xmlns="http://www.w3.org/2000/svg" xmlns:xlink="http://www.w3.org/1999/xlink" xml:space="preserve" xmlns:serif="http://www.serif.com/" style="fill-rule:evenodd;clip-rule:evenodd;stroke-linejoin:round;stroke-miterlimit:2;"><rect id="logo-gold" x="0" y="0" width="2480.458" height="2230.248" style="fill-opacity:0;"/><g id="Benaribi" transform="matrix(561.554997,0,0,561.554997,2494.127082,1919.950133)"></g><text x="-15.462px" y="1919.95px" style="font-family:'CormorantGaramond-Medium', 'Cormorant Garamond';font-weight:500;font-size:561.555px;fill:#ebc872;">BENARIBI</text><g id="Agence"><g transform="matrix(322.453918,0,0,322.453918,1609.656323,2132.932173)"></g><text x="865.11px" y="2132.932px" style="font-family:'CormorantGaramond-Italic', 'Cormorant Garamond';font-style:italic;font-size:322.454px;fill:#ebc872;">agence</text></g><g id="Arco"><g><path d="M1238.141,200.646c-4.017,1.476 -185.388,69.198 -303.306,302.695c-53.774,106.481 -55.69,250.687 52.835,377.381l-103.07,98.289c0,0 4.251,430.213 0.138,431.907l-46.438,0l-1.652,-456.789l78.557,-78.313c-91.642,-123.472 -82.871,-294.955 -38.018,-393.498c61.224,-134.51 172.798,-255.616 360.886,-341.44c0.023,-0.01 0.045,-0.021 0.068,-0.031c0.023,0.01 0.045,0.021 0.068,0.031c188.088,85.825 299.662,206.93 360.886,341.44c44.853,98.543 53.624,270.025 -38.018,393.498l78.557,78.313l-1.652,456.789l-46.438,0c-4.113,-1.694 0.138,-431.907 0.138,-431.907l-103.07,-98.289c108.524,-126.693 106.608,-270.9 52.835,-377.381c-117.918,-233.497 -299.289,-301.219 -303.306,-302.695Z" style="fill:#eac771;"/><path d="M1238.209,68.06c-53.705,25.009 -279.464,160.62 -378.009,307.356c-73.004,108.706 -92.895,195.774 -99.595,289.089c0,0 5.975,743.952 0,746.413l-46.438,0l0,-756.916c0,-9.266 0.576,-18.464 0.729,-27.623c2.002,-120.476 62.848,-228.999 106.984,-291.125c87.198,-122.742 228.159,-241.17 416.329,-326.999c188.17,85.828 329.132,204.257 416.329,326.999c44.136,62.126 104.982,170.65 106.984,291.125c0.152,9.159 0.729,18.357 0.729,27.623l0,756.916l-46.438,0c-5.975,-2.46 0,-746.413 0,-746.413c-6.7,-93.315 -26.591,-180.383 -99.595,-289.089c-98.545,-146.736 -324.304,-282.347 -378.009,-307.356Z" style="fill:#eac771;"/></g></g></svg>