<?xml version="1.0" encoding="UTF-8" standalone="no"?><!DOCTYPE svg PUBLIC "-//W3C//DTD SVG 1.1//EN" "http://www.w3.org/Graphics/SVG/1.1/DTD/svg11.dtd"><svg width="100%" height="100%" viewBox="0 0 6371 1105" version="1.1" xmlns="http://www.w3.org/2000/svg" xmlns:xlink="http://www.w3.org/1999/xlink" xml:space="preserve" xmlns:serif="http://www.serif.com/" style="fill-rule:evenodd;clip-rule:evenodd;stroke-linejoin:round;stroke-miterlimit:2;"><rect id="one-line-gold" x="0.198" y="0.267" width="6370.644" height="1104.409" style="fill-opacity:0;"/><g><path d="M430.398,160.334c-3.07,1.129 -141.713,52.896 -231.851,231.384c-41.105,81.395 -42.57,191.629 40.387,288.475l-78.788,75.133c0,0 3.25,328.86 0.106,330.155l-35.498,0l-1.263,-349.175l60.05,-59.864c-70.053,-94.384 -63.348,-225.467 -29.062,-300.795c46.801,-102.821 132.089,-195.396 275.866,-261.001c0.017,-0.008 0.035,-0.016 0.052,-0.024c0.017,0.008 0.035,0.016 0.052,0.024c143.777,65.605 229.065,158.18 275.866,261.001c34.286,75.327 40.991,206.411 -29.062,300.795l60.05,59.864l-1.263,349.175l-35.498,0c-3.144,-1.295 0.106,-330.155 0.106,-330.155l-78.788,-75.133c82.957,-96.846 81.493,-207.08 40.387,-288.475c-90.138,-178.488 -228.781,-230.256 -231.851,-231.384Z" style="fill:#eac771;"/><path d="M430.45,58.983c-41.052,19.117 -213.626,122.78 -288.955,234.947c-55.805,83.096 -71.01,149.652 -76.132,220.983c0,0 4.567,568.687 0,570.567l-35.498,0l0,-578.596c0,-7.083 0.441,-14.114 0.557,-21.115c1.53,-92.093 48.042,-175.05 81.78,-222.54c66.655,-93.825 174.408,-184.354 318.248,-249.962c143.84,65.608 251.592,156.137 318.248,249.962c33.738,47.49 80.25,130.447 81.78,222.54c0.116,7.001 0.557,14.032 0.557,21.115l0,578.596l-35.498,0c-4.567,-1.881 0,-570.567 0,-570.567c-5.121,-71.331 -20.326,-137.887 -76.132,-220.983c-75.329,-112.167 -247.902,-215.83 -288.955,-234.947Z" style="fill:#eac771;"/></g><g id="Benaribi" transform="matrix(1071.975758,0,0,1071.975758,5998.618712,881.626945)"></g><text x="1207.959px" y="881.627px" style="font-family:'CormorantGaramond-Medium', 'Cormorant Garamond';font-weight:500;font-size:1071.976px;fill:#ebc872;">BENARIBI</text></svg>